<svg width="254" height="73" viewBox="0 0 254 73" fill="none" xmlns="http://www.w3.org/2000/svg">
<path d="M36.5 73C56.6584 73 73 56.6584 73 36.5C73 16.3416 56.6584 0 36.5 0C16.3416 0 0 16.3416 0 36.5C0 56.6584 16.3416 73 36.5 73Z" fill="white"/>
<path d="M45.7027 57.0351C48.2078 57.0351 50.2385 55.0044 50.2385 52.4994C50.2385 49.9944 48.2078 47.9636 45.7027 47.9636C43.1977 47.9636 41.167 49.9944 41.167 52.4994C41.167 55.0044 43.1977 57.0351 45.7027 57.0351Z" fill="#FF8E01"/>
<path d="M55.4128 22.0747C55.2575 21.8296 55.0987 21.5845 54.9399 21.336C54.3876 20.6836 53.8388 20.0346 53.2865 19.3822C52.4373 18.6711 51.6399 17.8806 50.7252 17.2593C44.4808 13.0101 37.9084 12.4923 31.0979 15.7543C27.1317 17.6563 24.4565 20.8803 22.4164 24.6877C20.3453 28.5503 18.9715 32.6753 17.9187 36.9142C16.6898 41.8538 15.9062 46.8659 15.4989 51.9402C15.4782 52.1818 15.4713 52.4234 15.4609 52.6651C15.5887 52.8169 15.7164 52.9654 15.8406 53.1173C18.9818 53.4486 22.1299 53.5798 25.2849 53.5625C26.179 51.0461 28.5815 49.2443 31.4051 49.2443C33.8904 49.2443 36.0478 50.6423 37.1386 52.6927C37.8463 52.5788 38.5539 52.4545 39.2581 52.3095C39.6205 49.0682 42.3717 46.5484 45.7096 46.5484C47.4114 46.5484 48.9613 47.2042 50.1176 48.2743C53.7973 45.8649 56.3275 42.5407 57.6427 38.3502C59.4515 32.5959 58.6507 27.1558 55.4128 22.0747ZM45.216 39.2235C41.6019 42.2473 36.1203 41.7606 33.0827 38.1465C30.0002 34.4772 30.4627 29.006 34.1148 25.9407C37.7979 22.8479 43.2346 23.3277 46.3517 27.0246C49.41 30.656 48.8991 36.141 45.216 39.2235Z" fill="#FF8E01"/>
<path d="M31.2153 59.7483C33.7203 59.7483 35.7511 57.7176 35.7511 55.2125C35.7511 52.7075 33.7203 50.6768 31.2153 50.6768C28.7103 50.6768 26.6796 52.7075 26.6796 55.2125C26.6796 57.7176 28.7103 59.7483 31.2153 59.7483Z" fill="#FF8E01"/>
<path d="M109.017 39.6688C109.994 40.9667 110.48 42.5615 110.48 44.4565C110.48 47.0523 109.524 49.1062 107.615 50.6216C105.706 52.1369 103.076 52.8964 99.7243 52.8964H88.2676C87.2458 52.8964 86.4588 52.6202 85.9065 52.0645C85.3542 51.5122 85.0746 50.7251 85.0746 49.7034V25.2607C85.0746 24.2424 85.3507 23.4554 85.9065 22.8997C86.4588 22.3474 87.2458 22.0678 88.2676 22.0678H99.2859C102.493 22.0678 105.037 22.7823 106.915 24.2114C108.796 25.6404 109.735 27.5942 109.735 30.0692C109.735 31.6708 109.303 33.0792 108.444 34.2874C107.584 35.4955 106.397 36.3792 104.881 36.9315C106.663 37.4596 108.04 38.3709 109.017 39.6688ZM91.7229 34.6187H98.1502C99.9003 34.6187 101.188 34.3184 102.02 33.7213C102.852 33.1241 103.266 32.2128 103.266 30.9874C103.266 29.7033 102.852 28.7644 102.02 28.1672C101.188 27.57 99.9003 27.2697 98.1502 27.2697H91.7229V34.6187ZM102.872 46.7727C103.687 46.1618 104.098 45.1711 104.098 43.8007C104.098 42.4303 103.69 41.4258 102.872 40.7838C102.054 40.1417 100.743 39.8207 98.9373 39.8207H91.7229V47.6909H98.9373C100.743 47.6909 102.054 47.3837 102.872 46.7727Z" fill="white"/>
<path d="M134.464 31.8193C135.061 32.375 135.361 33.131 135.361 34.0941V50.1418C135.361 51.0462 135.047 51.7745 134.423 52.3268C133.794 52.8791 132.987 53.1587 131.996 53.1587C131.064 53.1587 130.318 52.8964 129.766 52.3717C129.21 51.847 128.934 51.1463 128.934 50.2729V49.8346C128.264 50.9426 127.381 51.7883 126.29 52.3717C125.196 52.955 123.967 53.245 122.596 53.245C119.887 53.245 117.867 52.4959 116.542 50.9944C115.216 49.4928 114.554 47.2284 114.554 44.1942V34.0941C114.554 33.131 114.854 32.375 115.451 31.8193C116.048 31.267 116.856 30.9874 117.878 30.9874C118.899 30.9874 119.7 31.2635 120.284 31.8193C120.867 32.375 121.157 33.131 121.157 34.0941V44.3254C121.157 45.6095 121.426 46.5553 121.965 47.1663C122.503 47.7772 123.328 48.0845 124.436 48.0845C125.717 48.0845 126.759 47.6461 127.564 46.7728C128.364 45.8994 128.765 44.7465 128.765 43.3174V34.0941C128.765 33.131 129.055 32.375 129.638 31.8193C130.222 31.267 131.022 30.9874 132.044 30.9874C133.056 30.9874 133.867 31.267 134.464 31.8193Z" fill="white"/>
<path d="M143.929 52.8066C142.617 52.5166 141.464 52.0506 140.474 51.4086C140.035 51.1462 139.7 50.7976 139.469 50.3592C139.234 49.9208 139.12 49.4272 139.12 48.8715C139.12 48.2018 139.31 47.6392 139.69 47.187C140.07 46.7348 140.536 46.5104 141.088 46.5104C141.468 46.5104 141.847 46.576 142.224 46.7072C142.603 46.8383 142.997 46.9902 143.404 47.1663C144.219 47.546 145.023 47.8428 145.81 48.0637C146.597 48.2812 147.574 48.3917 148.741 48.3917C149.763 48.3917 150.557 48.2329 151.123 47.9119C151.692 47.5908 151.975 47.1524 151.975 46.6001C151.975 46.1928 151.851 45.8649 151.602 45.6164C151.354 45.3678 150.895 45.1435 150.225 44.9398C149.555 44.7361 148.492 44.4876 147.032 44.1976C144.436 43.704 142.572 42.9584 141.437 41.9677C140.301 40.9771 139.731 39.5929 139.731 37.8152C139.731 36.5034 140.132 35.3229 140.933 34.2735C141.734 33.2242 142.835 32.4026 144.233 31.802C145.631 31.2048 147.205 30.9045 148.955 30.9045C150.208 30.9045 151.433 31.0633 152.628 31.3843C153.822 31.7054 154.885 32.1576 155.821 32.7409C156.725 33.2967 157.177 34.1113 157.177 35.1883C157.177 35.889 156.987 36.4724 156.608 36.9384C156.228 37.4044 155.762 37.6391 155.21 37.6391C154.54 37.6391 153.736 37.3768 152.804 36.8521C152.075 36.4724 151.413 36.1893 150.815 35.9995C150.218 35.8096 149.511 35.7164 148.696 35.7164C147.792 35.7164 147.077 35.8856 146.552 36.2204C146.028 36.5552 145.765 37.0143 145.765 37.5977C145.765 38.2087 146.073 38.6747 146.684 38.9957C147.294 39.3167 148.475 39.6377 150.225 39.9588C152.179 40.3385 153.708 40.7976 154.816 41.3361C155.924 41.8745 156.725 42.5546 157.222 43.3692C157.719 44.1873 157.964 45.2194 157.964 46.4724C157.964 48.5435 157.112 50.1901 155.406 51.412C153.701 52.6375 151.419 53.2484 148.565 53.2484C146.787 53.245 145.241 53.1 143.929 52.8066Z" fill="white"/>
<path d="M168.458 51.3637C166.183 50.0831 164.436 48.2432 163.211 45.8546C161.986 43.4659 161.375 40.6664 161.375 37.4596C161.375 34.2528 161.986 31.4637 163.211 29.0854C164.436 26.7105 166.183 24.881 168.458 23.5969C170.733 22.3163 173.384 21.6743 176.414 21.6743C180.232 21.6743 183.525 22.7236 186.297 24.8224C186.735 25.171 187.039 25.5231 187.215 25.8717C187.391 26.2204 187.478 26.6587 187.478 27.1834C187.478 27.9428 187.267 28.5918 186.842 29.1303C186.421 29.6688 185.904 29.938 185.289 29.938C184.882 29.938 184.523 29.8862 184.219 29.7861C183.912 29.686 183.57 29.5031 183.19 29.2407C182.024 28.4813 180.947 27.9359 179.956 27.6011C178.965 27.2663 177.902 27.0971 176.763 27.0971C173.964 27.0971 171.858 27.9636 170.446 29.6998C169.031 31.4361 168.327 34.0216 168.327 37.4596C168.327 44.3979 171.14 47.867 176.766 47.867C177.843 47.867 178.865 47.6979 179.828 47.363C180.791 47.0282 181.913 46.4828 183.194 45.7234C183.632 45.461 183.995 45.2781 184.288 45.178C184.578 45.0779 184.916 45.0261 185.293 45.0261C185.904 45.0261 186.421 45.2954 186.846 45.8338C187.267 46.3723 187.481 47.0213 187.481 47.7807C187.481 48.3054 187.384 48.7507 187.198 49.1131C187.008 49.479 186.708 49.8207 186.301 50.1418C183.532 52.2405 180.236 53.2899 176.418 53.2899C173.384 53.2864 170.733 52.6478 168.458 51.3637Z" fill="white"/>
<path d="M207.592 33.1966C209.107 34.7257 209.866 37.0661 209.866 40.2142V50.0969C209.866 51.06 209.59 51.809 209.034 52.3475C208.479 52.886 207.709 53.1552 206.718 53.1552C205.786 53.1552 205.034 52.8722 204.468 52.3026C203.898 51.7331 203.615 50.9978 203.615 50.0934V49.7862C203.177 50.8632 202.448 51.7089 201.43 52.3233C200.408 52.9343 199.214 53.2415 197.844 53.2415C196.387 53.2415 195.068 52.9516 193.888 52.3682C192.707 51.7849 191.775 50.9702 191.088 49.9208C190.401 48.8715 190.06 47.7048 190.06 46.4241C190.06 44.8501 190.46 43.6108 191.261 42.7065C192.062 41.8021 193.353 41.1462 195.13 40.7389C196.908 40.3316 199.342 40.1279 202.431 40.1279H203.567V39.3409C203.567 38.1155 203.297 37.2283 202.759 36.6726C202.22 36.1203 201.323 35.8407 200.07 35.8407C198.817 35.8407 197.008 36.2791 194.647 37.1524C193.977 37.4734 193.408 37.6322 192.942 37.6322C192.3 37.6322 191.789 37.4078 191.413 36.9556C191.033 36.5035 190.843 35.9132 190.843 35.1848C190.843 34.6015 190.974 34.1217 191.237 33.742C191.499 33.3623 191.92 33.0136 192.503 32.6926C193.525 32.1403 194.771 31.7019 196.242 31.3809C197.712 31.0599 199.162 30.9011 200.591 30.9011C203.746 30.9011 206.076 31.6674 207.592 33.1966ZM202.39 47.4079C203.177 46.5484 203.57 45.4334 203.57 44.063V43.3209H202.828C200.467 43.3209 198.814 43.5107 197.864 43.8904C196.915 44.2701 196.442 44.9536 196.442 45.9443C196.442 46.7624 196.711 47.4251 197.25 47.9326C197.788 48.4434 198.468 48.6989 199.283 48.6989C200.567 48.6954 201.603 48.2674 202.39 47.4079Z" fill="white"/>
<path d="M229.697 31.5776C230.208 32.0298 230.464 32.7064 230.464 33.6108C230.464 34.5739 230.229 35.2884 229.763 35.7544C229.297 36.2204 228.465 36.5138 227.271 36.6277L225.959 36.7589C224.354 36.9349 223.198 37.4596 222.483 38.3329C221.769 39.2063 221.413 40.3316 221.413 41.6985V50.052C221.413 51.0738 221.099 51.8435 220.474 52.3682C219.846 52.8929 219.066 53.1552 218.134 53.1552C217.171 53.1552 216.377 52.8929 215.752 52.3682C215.124 51.8435 214.813 51.0703 214.813 50.052V34.0043C214.813 33.0412 215.134 32.2991 215.776 31.7744C216.418 31.2497 217.188 30.9874 218.092 30.9874C218.966 30.9874 219.694 31.2428 220.277 31.7537C220.861 32.2646 221.151 32.9722 221.151 33.8731V35.0537C221.675 33.8006 222.469 32.8376 223.532 32.1679C224.596 31.4983 225.755 31.1185 227.008 31.0323L227.619 30.9874C228.493 30.9287 229.187 31.1255 229.697 31.5776Z" fill="white"/>
<path d="M236.232 51.8677C234.513 50.9495 233.184 49.6516 232.252 47.9774C231.32 46.3033 230.854 44.3254 230.854 42.054C230.854 39.7793 231.32 37.8048 232.252 36.1306C233.184 34.453 234.509 33.1655 236.232 32.2611C237.951 31.3567 239.949 30.9045 242.221 30.9045C244.492 30.9045 246.491 31.3567 248.21 32.2611C249.929 33.1655 251.254 34.4565 252.19 36.1306C253.122 37.8083 253.588 39.7827 253.588 42.054C253.588 44.3288 253.122 46.3033 252.19 47.9774C251.258 49.655 249.932 50.9495 248.21 51.8677C246.491 52.7859 244.492 53.245 242.221 53.245C239.949 53.245 237.951 52.7859 236.232 51.8677ZM247.033 42.0506C247.033 39.9795 246.618 38.4365 245.787 37.4147C244.955 36.393 243.767 35.8856 242.224 35.8856C239.017 35.8856 237.416 37.9394 237.416 42.0506C237.416 46.1618 239.017 48.2156 242.224 48.2156C245.428 48.2156 247.033 46.1618 247.033 42.0506Z" fill="white"/>
</svg>
