<svg width="59" height="59" viewBox="0 0 59 59" fill="none" xmlns="http://www.w3.org/2000/svg">
<g clip-path="url(#clip0_309_258)">
<path d="M29.4994 58.9987C45.7914 58.9987 58.9987 45.7914 58.9987 29.4994C58.9987 13.2073 45.7914 0 29.4994 0C13.2073 0 0 13.2073 0 29.4994C0 45.7914 13.2073 58.9987 29.4994 58.9987Z" fill="#FF8E01"/>
<path d="M36.9369 46.0959C38.9609 46.0959 40.6017 44.4551 40.6017 42.431C40.6017 40.407 38.9609 38.7662 36.9369 38.7662C34.9128 38.7662 33.272 40.407 33.272 42.431C33.272 44.4551 34.9128 46.0959 36.9369 46.0959Z" fill="white"/>
<path d="M44.7844 17.8415C44.6578 17.6422 44.5299 17.4441 44.4033 17.246C43.9582 16.7194 43.5131 16.194 43.068 15.6675C42.3809 15.092 41.7365 14.4525 40.9992 13.951C35.9514 10.5156 30.6403 10.0981 25.1362 12.7348C21.9302 14.2707 19.7686 16.8774 18.1186 19.9529C16.4436 23.0761 15.3352 26.4087 14.4826 29.8341C13.4896 33.8262 12.8552 37.8772 12.5267 41.9772C12.5117 42.1715 12.5054 42.3671 12.4954 42.5627C12.5982 42.6843 12.701 42.8059 12.8038 42.9275C15.3427 43.1959 17.8879 43.3024 20.4369 43.2874C21.1604 41.2537 23.1 39.7981 25.3819 39.7981C27.3905 39.7981 29.1345 40.9265 30.0172 42.584C30.5902 42.4925 31.1607 42.3909 31.7311 42.2756C32.0245 39.6551 34.2463 37.619 36.9444 37.619C38.3199 37.619 39.5711 38.1493 40.5077 39.0144C43.483 37.066 45.5267 34.3804 46.5886 30.9939C48.0481 26.3435 47.4011 21.949 44.7844 17.8415ZM36.5432 31.701C33.6219 34.1447 29.1909 33.7522 26.736 30.8321C24.2447 27.8682 24.6183 23.446 27.5698 20.966C30.545 18.4659 34.9409 18.8559 37.4597 21.8424C39.9322 24.7763 39.521 29.211 36.5432 31.701Z" fill="white"/>
<path d="M25.2289 48.2875C27.253 48.2875 28.8938 46.6467 28.8938 44.6227C28.8938 42.5986 27.253 40.9578 25.2289 40.9578C23.2049 40.9578 21.5641 42.5986 21.5641 44.6227C21.5641 46.6467 23.2049 48.2875 25.2289 48.2875Z" fill="white"/>
</g>
<defs>
<clipPath id="clip0_309_258">
<rect width="59" height="59" fill="white"/>
</clipPath>
</defs>
</svg>
