<svg width="21" height="21" viewBox="0 0 21 21" fill="none" xmlns="http://www.w3.org/2000/svg">
<path fill-rule="evenodd" clip-rule="evenodd" d="M19.8272 2.33547H18.4626C18.2216 1.65256 17.7748 1.0612 17.1836 0.642913C16.5925 0.224625 15.8861 0 15.1619 0C14.4378 0 13.7314 0.224625 13.1403 0.642913C12.5491 1.0612 12.1023 1.65256 11.8613 2.33547H1.1663C0.856981 2.33547 0.560327 2.45834 0.341602 2.67707C0.122878 2.89579 0 3.19245 0 3.50177C0 3.81109 0.122878 4.10775 0.341602 4.32647C0.560327 4.54519 0.856981 4.66807 1.1663 4.66807H11.8613C12.1023 5.35098 12.5491 5.94234 13.1403 6.36063C13.7314 6.77891 14.4378 7.00354 15.1619 7.00354C15.8861 7.00354 16.5925 6.77891 17.1836 6.36063C17.7748 5.94234 18.2216 5.35098 18.4626 4.66807H19.8272C20.1365 4.66807 20.4331 4.54519 20.6519 4.32647C20.8706 4.10775 20.9935 3.81109 20.9935 3.50177C20.9935 3.19245 20.8706 2.89579 20.6519 2.67707C20.4331 2.45834 20.1365 2.33547 19.8272 2.33547ZM15.1619 4.66807C15.4713 4.66807 15.7679 4.54519 15.9866 4.32647C16.2054 4.10775 16.3283 3.81109 16.3283 3.50177C16.3283 3.19245 16.2054 2.89579 15.9866 2.67707C15.7679 2.45834 15.4713 2.33547 15.1619 2.33547C14.8526 2.33547 14.556 2.45834 14.3372 2.67707C14.1185 2.89579 13.9956 3.19245 13.9956 3.50177C13.9956 3.81109 14.1185 4.10775 14.3372 4.32647C14.556 4.54519 14.8526 4.66807 15.1619 4.66807ZM0 10.4996C0 10.1903 0.122878 9.89361 0.341602 9.67489C0.560327 9.45617 0.856981 9.33329 1.1663 9.33329H2.53088C2.77184 8.65038 3.21869 8.05902 3.80985 7.64073C4.401 7.22245 5.10734 6.99782 5.83152 6.99782C6.55569 6.99782 7.26204 7.22245 7.85319 7.64073C8.44434 8.05902 8.8912 8.65038 9.13216 9.33329H19.8272C20.1365 9.33329 20.4331 9.45617 20.6519 9.67489C20.8706 9.89361 20.9935 10.1903 20.9935 10.4996C20.9935 10.8089 20.8706 11.1056 20.6519 11.3243C20.4331 11.543 20.1365 11.6659 19.8272 11.6659H9.13216C8.8912 12.3488 8.44434 12.9402 7.85319 13.3584C7.26204 13.7767 6.55569 14.0014 5.83152 14.0014C5.10734 14.0014 4.401 13.7767 3.80985 13.3584C3.21869 12.9402 2.77184 12.3488 2.53088 11.6659H1.1663C0.856981 11.6659 0.560327 11.543 0.341602 11.3243C0.122878 11.1056 0 10.8089 0 10.4996ZM5.83152 11.6659C6.14084 11.6659 6.43749 11.543 6.65622 11.3243C6.87494 11.1056 6.99782 10.8089 6.99782 10.4996C6.99782 10.1903 6.87494 9.89361 6.65622 9.67489C6.43749 9.45617 6.14084 9.33329 5.83152 9.33329C5.5222 9.33329 5.22554 9.45617 5.00682 9.67489C4.78809 9.89361 4.66521 10.1903 4.66521 10.4996C4.66521 10.8089 4.78809 11.1056 5.00682 11.3243C5.22554 11.543 5.5222 11.6659 5.83152 11.6659ZM1.1663 16.3311C0.856981 16.3311 0.560327 16.454 0.341602 16.6727C0.122878 16.8914 0 17.1881 0 17.4974C0 17.8067 0.122878 18.1034 0.341602 18.3221C0.560327 18.5408 0.856981 18.6637 1.1663 18.6637H11.8613C12.1023 19.3466 12.5491 19.938 13.1403 20.3563C13.7314 20.7746 14.4378 20.9992 15.1619 20.9992C15.8861 20.9992 16.5925 20.7746 17.1836 20.3563C17.7748 19.938 18.2216 19.3466 18.4626 18.6637H19.8272C20.1365 18.6637 20.4331 18.5408 20.6519 18.3221C20.8706 18.1034 20.9935 17.8067 20.9935 17.4974C20.9935 17.1881 20.8706 16.8914 20.6519 16.6727C20.4331 16.454 20.1365 16.3311 19.8272 16.3311H18.4626C18.2216 15.6482 17.7748 15.0568 17.1836 14.6386C16.5925 14.2203 15.8861 13.9956 15.1619 13.9956C14.4378 13.9956 13.7314 14.2203 13.1403 14.6386C12.5491 15.0568 12.1023 15.6482 11.8613 16.3311H1.1663ZM16.3283 17.4974C16.3283 17.8067 16.2054 18.1034 15.9866 18.3221C15.7679 18.5408 15.4713 18.6637 15.1619 18.6637C14.8526 18.6637 14.556 18.5408 14.3372 18.3221C14.1185 18.1034 13.9956 17.8067 13.9956 17.4974C13.9956 17.1881 14.1185 16.8914 14.3372 16.6727C14.556 16.454 14.8526 16.3311 15.1619 16.3311C15.4713 16.3311 15.7679 16.454 15.9866 16.6727C16.2054 16.8914 16.3283 17.1881 16.3283 17.4974Z" fill="#9C9C9C"/>
</svg>
